<?xml version="1.0" encoding="utf-8"?>
<!-- Generator: Adobe Illustrator 16.0.0, SVG Export Plug-In . SVG Version: 6.00 Build 0)  -->
<!DOCTYPE svg PUBLIC "-//W3C//DTD SVG 1.1//EN" "http://www.w3.org/Graphics/SVG/1.1/DTD/svg11.dtd">
<svg version="1.1" xmlns="http://www.w3.org/2000/svg" xmlns:xlink="http://www.w3.org/1999/xlink" x="0px" y="0px" width="600px"
	 height="500px" viewBox="0 0 600 500" enable-background="new 0 0 600 500" xml:space="preserve">
<g id="home">
	<g>
		
			<rect x="63.49" y="117.547" transform="matrix(1 -0.0014 0.0014 1 -0.2692 0.4047)" fill="none" width="434.02" height="138.572"/>
		<path fill="#FCFDF5" stroke="#000000" stroke-width="2" stroke-miterlimit="10" d="M107.799,170.487
			c0,17.699-0.75,36.448-5.7,47.848c0.6,1.05,2.1,1.8,4.35,1.8c2.4,0,5.399-4.8,6-8.7c0.15-0.9,1.5-0.9,1.5,0
			c0,9.15-3.75,18.299-10.05,18.299c-3.149,0-5.7-1.2-7.799-2.85c-2.1,1.8-4.95,2.85-8.4,2.85
			c-17.999,0-19.949-30.899-19.949-59.248c0-21.599,1.95-53.248,19.949-53.248C105.85,117.239,107.799,148.888,107.799,170.487z
			 M80.051,170.637c0,15.6,0.6,26.999,1.5,37.048c1.5-1.5,3.3-2.7,5.549-2.7c2.25,0,4.65,0.9,6.45,3.15
			c1.2-7.65,1.95-19.949,1.95-37.499c0-33.298-3.3-45.898-7.8-45.898C83.351,124.739,80.051,137.339,80.051,170.637z M91.15,218.335
			c-0.9-4.2-2.4-7.2-5.25-7.2c-1.65,0-3,1.35-3,3.45c0,3.9,2.85,7.65,4.8,7.65C89.05,222.235,90.1,221.185,91.15,218.335z"/>
		<path fill="#FCFDF5" stroke="#000000" stroke-width="2" stroke-miterlimit="10" d="M153.85,221.485c0,0.6,0,1.05,0.15,1.35
			l4.65,5.25c0.45,0.3,0.75,0.75,0.75,1.05c0,0.45-0.45,0.6-1.05,0.6H144.4c-0.6,0-1.05-0.3-1.05-0.6v-5.1h-0.3
			c-2.55,3-5.25,5.7-10.049,5.7c-8.7,0-12.75-5.1-12.75-15.299v-60.897c0-0.6-0.15-0.9-0.45-1.2l-4.5-4.2c-0.3-0.45-0.6-0.9-0.6-1.2
			c0-0.45,0.45-0.6,0.9-0.6H130c0.45,0,0.75,0.3,0.75,0.9v67.347c0,5.7,1.95,8.7,5.85,8.7c3.6,0,6.75-4.65,6.75-12v-57.748
			c0-0.6-0.15-0.9-0.45-1.2l-4.35-4.2c-0.45-0.45-0.75-0.9-0.75-1.2c0-0.45,0.45-0.6,0.9-0.6H153.1c0.6,0,0.75,0.3,0.75,0.9V221.485
			z"/>
		<path fill="#FCFDF5" stroke="#000000" stroke-width="2" stroke-miterlimit="10" d="M196.299,219.535c0,1.95,0.6,3.75,1.95,3.75
			c1.5,0,3.15-0.75,4.35-2.55c0.3-0.3,0.45-0.6,0.75-0.6s0.45,0.3,0.45,0.75c-0.6,4.35-4.05,8.85-7.8,8.85c-4.65,0-7.05-3-8.85-5.7
			c-2.4,2.7-6.3,5.7-10.35,5.7c-5.85,0-13.049-3.75-13.049-24.299c0-16.799,2.55-21.299,19.049-34.499c3-2.4,3-3.75,3-9.9
			c0-6.6-1.5-8.25-6.3-8.25c-4.35,0-10.649,3.45-13.35,6.149c-0.3,0.3-0.75,0.45-1.2,0.45c-0.3,0-0.45-0.3-0.45-0.75
			c0-1.8,8.55-12.299,16.95-12.299c5.399,0,14.849,3.3,14.849,18.749V219.535z M185.8,175.137h-0.3
			c-8.25,7.05-10.65,12.299-10.65,27.599c0,17.1,1.65,20.549,4.95,20.549c3.3,0,6-4.65,6-8.85V175.137z"/>
		<path fill="#FCFDF5" stroke="#000000" stroke-width="2" stroke-miterlimit="10" d="M220.598,221.485c0,0.6,0,1.05,0.15,1.35
			l5.1,5.25c0.45,0.3,0.6,0.75,0.6,1.05c0,0.45-0.3,0.6-0.9,0.6h-20.099c-0.6,0-0.9-0.15-0.9-0.6c0-0.3,0.15-0.75,0.6-1.05
			l4.65-5.25c0.3-0.3,0.3-0.75,0.3-1.35v-67.947c0-0.6-0.15-0.9-0.6-1.2l-4.35-4.2c-0.45-0.45-0.6-0.9-0.6-1.2
			c0-0.45,0.3-0.6,0.9-0.6h14.399c0.45,0,0.75,0.3,0.75,0.9v5.1h0.3c2.4-3,4.95-6,8.4-6c4.95,0,8.1,7.95,8.1,12.75
			c0,0.75-0.15,1.35-0.75,1.35s-0.9-0.6-1.2-1.35c-1.65-4.05-4.65-5.7-7.8-5.7c-4.35,0-7.05,6.149-7.05,13.799V221.485z"/>
		<path fill="#FCFDF5" stroke="#000000" stroke-width="2" stroke-miterlimit="10" d="M273.245,219.535c0,1.95,0.6,3.75,1.95,3.75
			c1.5,0,3.15-0.75,4.35-2.55c0.3-0.3,0.45-0.6,0.75-0.6s0.45,0.3,0.45,0.75c-0.6,4.35-4.05,8.85-7.8,8.85c-4.65,0-7.05-3-8.85-5.7
			c-2.4,2.7-6.3,5.7-10.35,5.7c-5.85,0-13.05-3.75-13.05-24.299c0-16.799,2.55-21.299,19.049-34.499c3-2.4,3-3.75,3-9.9
			c0-6.6-1.5-8.25-6.3-8.25c-4.35,0-10.649,3.45-13.349,6.149c-0.3,0.3-0.75,0.45-1.2,0.45c-0.3,0-0.45-0.3-0.45-0.75
			c0-1.8,8.55-12.299,16.95-12.299c5.399,0,14.849,3.3,14.849,18.749V219.535z M262.746,175.137h-0.3
			c-8.25,7.05-10.65,12.299-10.65,27.599c0,17.1,1.65,20.549,4.95,20.549c3.3,0,6-4.65,6-8.85V175.137z"/>
		<path fill="#FCFDF5" stroke="#000000" stroke-width="2" stroke-miterlimit="10" d="M297.544,151.588h0.3
			c2.7-2.85,5.25-5.25,10.35-5.25c7.5,0,12.449,5.25,12.449,15.299v59.848c0,0.6,0,1.05,0.301,1.35l4.649,5.25
			c0.3,0.3,0.601,0.75,0.601,1.05c0,0.45-0.451,0.6-0.9,0.6h-19.799c-0.601,0-0.9-0.15-0.9-0.6c0-0.3,0.3-0.75,0.6-1.05l4.65-5.25
			c0.3-0.3,0.3-0.75,0.3-1.35v-59.998c0-5.7-1.649-8.7-5.101-8.7c-3.6,0-7.499,4.95-7.499,13.049v55.648c0,0.6,0,1.05,0.15,1.35
			l4.65,5.25c0.45,0.3,0.75,0.75,0.75,1.05c0,0.45-0.45,0.6-0.9,0.6h-19.799c-0.6,0-0.9-0.15-0.9-0.6c0-0.3,0.15-0.75,0.6-1.05
			l4.649-5.25c0.3-0.3,0.3-0.75,0.3-1.35v-67.947c0-0.6-0.15-0.9-0.45-1.2l-4.5-4.2c-0.3-0.45-0.6-0.9-0.6-1.2
			c0-0.45,0.45-0.6,0.9-0.6h14.399c0.6,0,0.75,0.3,0.75,0.9V151.588z"/>
		<path fill="#FCFDF5" stroke="#000000" stroke-width="2" stroke-miterlimit="10" d="M343.744,217.885c0,3.15,1.5,5.4,3.6,5.4
			c1.8,0,3.75-1.65,4.649-3.15c0.3-0.3,0.601-0.6,0.899-0.6c0.301,0,0.601,0.45,0.451,0.9c-1.051,4.2-4.051,9.3-10.35,9.3
			c-6.301,0-9.75-2.85-9.75-15.149v-60.748c0-0.6,0-1.5-0.45-1.95l-4.35-4.2c-0.3-0.3-0.75-0.6-0.75-0.9
			c0-0.45,0.601-0.9,2.101-1.05c6.6-1.2,7.35-12.6,7.35-18.599c0-0.75,0.449-1.35,1.199-1.35h4.5c0.6,0,0.9,0.3,0.9,1.05v17.25
			c0,0.75,0.149,1.35,1.199,1.35h3.45c0.75,0,0.899,1.05,0,1.8l-3.45,3.9c-0.449,0.75-1.199,1.65-1.199,2.7V217.885z"/>
		<path fill="#FCFDF5" stroke="#000000" stroke-width="2" stroke-miterlimit="10" d="M359.644,153.538c0-0.6-0.149-0.9-0.45-1.2
			l-4.5-4.2c-0.3-0.45-0.6-0.9-0.6-1.2c0-0.45,0.45-0.6,0.9-0.6h14.398c0.451,0,0.75,0.3,0.75,0.9v74.247c0,0.6,0,1.05,0.301,1.35
			l4.649,5.25c0.3,0.3,0.6,0.75,0.6,1.05c0,0.45-0.3,0.6-0.899,0.6h-19.799c-0.45,0-0.9-0.15-0.9-0.6c0-0.3,0.3-0.75,0.6-1.05
			l4.65-5.25c0.3-0.3,0.3-0.75,0.3-1.35V153.538z M370.143,125.189c0,3.9-2.399,7.95-5.399,7.95c-3.149,0-5.55-4.05-5.55-7.95
			c0-4.05,2.4-7.95,5.55-7.95C367.743,117.239,370.143,121.139,370.143,125.189z"/>
		<path fill="#FCFDF5" stroke="#000000" stroke-width="2" stroke-miterlimit="10" d="M393.242,151.588h0.3
			c2.699-2.85,5.249-5.25,10.35-5.25c7.499,0,12.449,5.25,12.449,15.299v59.848c0,0.6,0,1.05,0.3,1.35l4.65,5.25
			c0.3,0.3,0.6,0.75,0.6,1.05c0,0.45-0.45,0.6-0.9,0.6h-19.799c-0.6,0-0.9-0.15-0.9-0.6c0-0.3,0.301-0.75,0.601-1.05l4.649-5.25
			c0.3-0.3,0.3-0.75,0.3-1.35v-59.998c0-5.7-1.649-8.7-5.1-8.7c-3.6,0-7.499,4.95-7.499,13.049v55.648c0,0.6,0,1.05,0.149,1.35
			l4.649,5.25c0.45,0.3,0.75,0.75,0.75,1.05c0,0.45-0.449,0.6-0.899,0.6h-19.799c-0.601,0-0.9-0.15-0.9-0.6
			c0-0.3,0.15-0.75,0.6-1.05l4.65-5.25c0.3-0.3,0.3-0.75,0.3-1.35v-67.947c0-0.6-0.15-0.9-0.45-1.2l-4.5-4.2
			c-0.3-0.45-0.6-0.9-0.6-1.2c0-0.45,0.45-0.6,0.9-0.6h14.399c0.6,0,0.75,0.3,0.75,0.9V151.588z"/>
		<path fill="#FCFDF5" stroke="#000000" stroke-width="2" stroke-miterlimit="10" d="M438.242,197.186
			c0,18.899,2.55,26.099,9.449,26.099c4.95,0,7.35-2.4,10.5-7.05c0.3-0.45,0.6-0.75,1.05-0.75s0.6,0.3,0.45,0.9
			c-1.8,7.2-6.45,13.35-13.8,13.35c-13.649,0-19.35-13.5-19.35-47.098c0-22.799,6.601-36.298,17.1-36.298
			c8.7,0,16.199,6.3,16.199,28.199v9.3c0,1.05-0.3,1.8-1.35,1.8h-20.249V197.186z M449.342,179.937v-15
			c0-7.95-2.101-12.149-5.7-12.149c-3.899,0-5.399,4.2-5.399,12.149v15H449.342z"/>
	</g>
	<g>
		
			<rect x="264.99" y="243.982" transform="matrix(1 -0.0014 0.0014 1 -0.4529 0.5948)" fill="none" width="291.511" height="138.572"/>
		<path stroke="#FCFDFB" stroke-width="2" stroke-miterlimit="10" d="M273.751,254.578c0-1.801-0.3-3.15-1.35-4.2l-4.5-4.35
			c-0.3-0.45-1.05-0.9-1.05-1.35c0-0.45,0.3-0.9,0.9-0.9h19.799c15.149,0,24.149,14.55,24.149,53.398
			c0,48.898-9,59.098-24.149,59.098h-19.799c-0.6,0-0.9-0.45-0.9-0.9c0-0.449,0.75-0.75,1.05-1.35l4.5-4.35
			c1.05-1.051,1.35-2.4,1.35-4.2V254.578z M285.3,348.773h2.7c5.85,0,11.399-5.699,11.399-51.598
			c0-40.198-5.55-45.898-11.399-45.898h-2.7V348.773z"/>
		<path stroke="#FCFDFB" stroke-width="2" stroke-miterlimit="10" d="M322.199,280.076c0-0.6-0.15-0.899-0.45-1.199l-4.499-4.2
			c-0.301-0.45-0.601-0.899-0.601-1.2c0-0.449,0.45-0.6,0.899-0.6h14.4c0.449,0,0.75,0.3,0.75,0.9v74.246c0,0.6,0,1.051,0.299,1.35
			l4.65,5.25c0.301,0.301,0.6,0.75,0.6,1.051c0,0.449-0.299,0.6-0.899,0.6h-19.8c-0.449,0-0.899-0.15-0.899-0.6
			c0-0.301,0.3-0.75,0.601-1.051l4.649-5.25c0.3-0.299,0.3-0.75,0.3-1.35V280.076z M332.699,251.728c0,3.899-2.4,7.95-5.4,7.95
			c-3.15,0-5.55-4.051-5.55-7.95c0-4.05,2.399-7.95,5.55-7.95C330.299,243.778,332.699,247.678,332.699,251.728z"/>
		<path stroke="#FCFDFB" stroke-width="2" stroke-miterlimit="10" d="M375.146,346.074c0,1.949,0.6,3.75,1.95,3.75
			c1.5,0,3.149-0.75,4.35-2.551c0.3-0.3,0.45-0.6,0.75-0.6s0.45,0.3,0.45,0.75c-0.6,4.35-4.05,8.85-7.8,8.85
			c-4.649,0-7.05-3-8.85-5.699c-2.399,2.699-6.3,5.699-10.35,5.699c-5.85,0-13.05-3.75-13.05-24.299
			c0-16.799,2.551-21.299,19.049-34.499c3-2.399,3-3.749,3-9.899c0-6.6-1.5-8.25-6.299-8.25c-4.35,0-10.65,3.45-13.35,6.15
			c-0.301,0.3-0.75,0.449-1.2,0.449c-0.3,0-0.45-0.299-0.45-0.75c0-1.799,8.55-12.299,16.949-12.299c5.4,0,14.85,3.3,14.85,18.749
			V346.074z M364.646,301.676h-0.299c-8.25,7.05-10.65,12.299-10.65,27.599c0,17.1,1.65,20.55,4.95,20.55s5.999-4.65,5.999-8.85
			V301.676z"/>
		<path stroke="#FCFDFB" stroke-width="2" stroke-miterlimit="10" d="M399.445,348.023c0,0.6,0,1.051,0.15,1.35l5.1,5.25
			c0.449,0.301,0.6,0.75,0.6,1.051c0,0.449-0.3,0.6-0.9,0.6h-20.099c-0.601,0-0.899-0.15-0.899-0.6c0-0.301,0.149-0.75,0.6-1.051
			l4.649-5.25c0.3-0.299,0.3-0.75,0.3-1.35v-67.947c0-0.6-0.149-0.899-0.6-1.199l-4.35-4.2c-0.45-0.45-0.6-0.899-0.6-1.2
			c0-0.449,0.299-0.6,0.899-0.6h14.399c0.45,0,0.75,0.3,0.75,0.9v5.1h0.3c2.399-3,4.95-6,8.399-6c4.95,0,8.1,7.949,8.1,12.75
			c0,0.75-0.149,1.35-0.75,1.35c-0.6,0-0.899-0.6-1.199-1.35c-1.65-4.051-4.65-5.7-7.8-5.7c-4.351,0-7.05,6.149-7.05,13.8V348.023z"
			/>
		<path stroke="#FCFDFB" stroke-width="2" stroke-miterlimit="10" d="M422.244,280.076c0-0.6-0.15-0.899-0.451-1.199l-4.499-4.2
			c-0.3-0.45-0.601-0.899-0.601-1.2c0-0.449,0.45-0.6,0.9-0.6h14.399c0.45,0,0.75,0.3,0.75,0.9v74.246c0,0.6,0,1.051,0.3,1.35
			l4.65,5.25c0.3,0.301,0.6,0.75,0.6,1.051c0,0.449-0.3,0.6-0.9,0.6h-19.799c-0.45,0-0.9-0.15-0.9-0.6
			c0-0.301,0.301-0.75,0.601-1.051l4.649-5.25c0.301-0.299,0.301-0.75,0.301-1.35V280.076z M432.743,251.728
			c0,3.899-2.399,7.95-5.399,7.95c-3.15,0-5.551-4.051-5.551-7.95c0-4.05,2.4-7.95,5.551-7.95
			C430.344,243.778,432.743,247.678,432.743,251.728z"/>
		<path stroke="#FCFDFB" stroke-width="2" stroke-miterlimit="10" d="M454.642,323.725c0,18.899,2.55,26.1,9.45,26.1
			c4.949,0,7.35-2.4,10.499-7.051c0.3-0.449,0.601-0.75,1.05-0.75c0.45,0,0.601,0.301,0.45,0.9c-1.8,7.199-6.45,13.35-13.8,13.35
			c-13.648,0-19.349-13.5-19.349-47.098c0-22.799,6.6-36.299,17.099-36.299c8.7,0,16.2,6.3,16.2,28.199v9.299
			c0,1.051-0.3,1.801-1.351,1.801h-20.249V323.725z M465.741,306.476v-14.999c0-7.95-2.1-12.15-5.7-12.15
			c-3.899,0-5.399,4.2-5.399,12.15v14.999H465.741z"/>
		<path stroke="#FCFDFB" stroke-width="2" stroke-miterlimit="10" d="M510.289,302.576c0,0.6-0.3,1.199-0.899,1.199
			c-0.45,0-0.75-0.6-0.9-1.35c-0.899-4.65-1.95-9.15-4.499-15.6c-1.951-4.8-4.051-7.5-6.9-7.5c-3.15,0-3.75,3.6-3.75,8.1
			c0,6.301,3.15,14.85,9.15,24.449c5.699,9.15,9.749,19.649,9.749,29.398c0,9.301-6.6,15-12.899,15c-4.199,0-6.75-1.949-9-4.8
			l-3.899,4.05c-0.45,0.3-0.899,0.75-1.5,0.75c-0.3,0-0.45-0.45-0.45-1.05v-28.799c0-0.45,0.15-1.05,0.6-1.05
			c0.75,0,0.75,0.6,0.9,1.35c2.4,12.149,5.85,23.1,11.4,23.1c3.299,0,4.799-2.551,4.799-6.45c0-9.3-4.799-19.199-9.6-26.999
			c-5.399-9-8.549-18.299-8.549-27.449c0-9.749,5.999-16.049,11.398-16.049c3.601,0,6.301,1.8,8.85,4.8l4.351-3.899
			c0.3-0.301,0.6-0.9,1.05-0.9c0.3,0,0.6,0.75,0.6,1.5V302.576z"/>
	</g>
</g>
<g id="logo" display="none">
	<g display="inline">
		
			<rect x="103.197" y="45.124" transform="matrix(1 -0.0014 0.0014 1 -0.3835 0.3087)" fill="none" width="221.485" height="442.036"/>
		<path fill="#FCFDF5" stroke="#000000" stroke-width="2" stroke-miterlimit="10" d="M274.605,250.863
			c0,68.439-2.9,140.94-22.04,185.021c2.32,4.06,8.12,6.96,16.82,6.96c9.28,0,20.88-18.561,23.2-33.641c0.58-3.479,5.8-3.479,5.8,0
			c0,35.381-14.5,70.761-38.86,70.761c-12.18,0-22.04-4.64-30.16-11.021c-8.12,6.961-19.14,11.021-32.48,11.021
			c-69.6,0-77.14-119.48-77.14-229.101c0-83.521,7.54-205.901,77.14-205.901C267.065,44.962,274.605,167.343,274.605,250.863z
			 M167.305,251.443c0,60.32,2.32,104.4,5.8,143.26c5.8-5.799,12.76-10.439,21.46-10.439c8.7,0,17.98,3.48,24.94,12.18
			c4.64-29.58,7.54-77.141,7.54-145c0-128.761-12.76-177.481-30.16-177.481C180.064,73.962,167.305,122.683,167.305,251.443z
			 M210.225,435.884c-3.48-16.24-9.28-27.841-20.3-27.841c-6.38,0-11.6,5.221-11.6,13.341c0,15.08,11.02,29.58,18.56,29.58
			C202.104,450.964,206.165,446.904,210.225,435.884z"/>
	</g>
	<g display="inline">
		
			<rect x="278.257" y="142.899" transform="matrix(1 -0.0014 0.0014 1 -0.4649 0.5917)" fill="none" width="260.346" height="356.912"/>
		<path stroke="#FCFDFB" stroke-width="2" stroke-miterlimit="10" d="M304.585,175.116c0-5.4-0.899-9.45-4.05-12.6l-13.5-13.05
			c-0.9-1.35-3.15-2.7-3.15-4.05s0.9-2.7,2.7-2.7h59.399c45.45,0,72.45,43.649,72.45,160.199c0,146.699-27,177.299-72.45,177.299
			h-59.399c-1.8,0-2.7-1.351-2.7-2.7s2.25-2.25,3.15-4.05l13.5-13.05c3.15-3.15,4.05-7.2,4.05-12.6V175.116z M339.234,457.714h8.101
			c17.55,0,34.2-17.1,34.2-154.799c0-120.599-16.65-137.699-34.2-137.699h-8.101V457.714z"/>
	</g>
</g>
</svg>
